# xmcd
#
# Track frame offsets:
#	150
#	21072
#	35420
#	51875
#	71205
#	87830
#	109087
#	124250
#	145977
#	161780
#
# Disc length: 2330 seconds
#
# Revision: 2
# Processed by: cddbd v1.5.1PL2 Copyright (c) Steve Scherf et al.
# Submitted via: dBpowerAMP V4.0
#
DISCID=8c09180a
DTITLE=Lee Roy Parnell - On The Road
DYEAR=1993
DGENRE=Country
TTITLE0=On The Road
TTITLE1=Country Down To My Soul
TTITLE2=The Power Of Love
TTITLE3=I'm Holding My Own
TTITLE4=They Don't Know You
TTITLE5=Straight Shooter
TTITLE6=Take These Chains From My Heart
TTITLE7=Wasted Time
TTITLE8=Straight And Narrow
TTITLE9=Fresh Coat Of Paint
EXTD=
EXTT0=
EXTT1=
EXTT2=
EXTT3=
EXTT4=
EXTT5=
EXTT6=
EXTT7=
EXTT8=
EXTT9=
PLAYORDER=
